<mxfile host="app.diagrams.net" modified="2023-05-23T17:27:29.583Z" agent="Mozilla/5.0 (Windows NT 10.0; Win64; x64) AppleWebKit/537.36 (KHTML, like Gecko) Chrome/113.0.0.0 Safari/537.36" etag="MVACrzPZC_kyiPCDZ3fJ" version="21.3.0" type="github">
  <diagram name="第 1 页" id="YMet3bwHSx1CGr5gLQUs">
    <mxGraphModel dx="1050" dy="589" grid="1" gridSize="10" guides="1" tooltips="1" connect="1" arrows="1" fold="1" page="1" pageScale="1" pageWidth="827" pageHeight="1169" math="0" shadow="0">
      <root>
        <mxCell id="0" />
        <mxCell id="1" parent="0" />
        <mxCell id="WYj4CPsdhlNgNL-GPiIF-1" style="edgeStyle=orthogonalEdgeStyle;rounded=0;orthogonalLoop=1;jettySize=auto;html=1;entryX=0.5;entryY=0;entryDx=0;entryDy=0;" edge="1" parent="1" source="WYj4CPsdhlNgNL-GPiIF-2" target="WYj4CPsdhlNgNL-GPiIF-4">
          <mxGeometry relative="1" as="geometry" />
        </mxCell>
        <mxCell id="WYj4CPsdhlNgNL-GPiIF-2" value="开始" style="strokeWidth=1;html=1;shape=mxgraph.flowchart.terminator;whiteSpace=wrap;" vertex="1" parent="1">
          <mxGeometry x="299.99" y="100" width="83.33" height="50" as="geometry" />
        </mxCell>
        <mxCell id="WYj4CPsdhlNgNL-GPiIF-3" style="edgeStyle=orthogonalEdgeStyle;rounded=0;orthogonalLoop=1;jettySize=auto;html=1;entryX=0.5;entryY=0;entryDx=0;entryDy=0;entryPerimeter=0;" edge="1" parent="1" source="WYj4CPsdhlNgNL-GPiIF-4" target="WYj4CPsdhlNgNL-GPiIF-7">
          <mxGeometry relative="1" as="geometry" />
        </mxCell>
        <mxCell id="WYj4CPsdhlNgNL-GPiIF-30" style="edgeStyle=orthogonalEdgeStyle;rounded=0;orthogonalLoop=1;jettySize=auto;html=1;entryX=0.5;entryY=0;entryDx=0;entryDy=0;" edge="1" parent="1" source="WYj4CPsdhlNgNL-GPiIF-4" target="WYj4CPsdhlNgNL-GPiIF-18">
          <mxGeometry relative="1" as="geometry" />
        </mxCell>
        <mxCell id="WYj4CPsdhlNgNL-GPiIF-31" style="edgeStyle=orthogonalEdgeStyle;rounded=0;orthogonalLoop=1;jettySize=auto;html=1;entryX=0.59;entryY=0.005;entryDx=0;entryDy=0;entryPerimeter=0;" edge="1" parent="1" source="WYj4CPsdhlNgNL-GPiIF-4" target="WYj4CPsdhlNgNL-GPiIF-29">
          <mxGeometry relative="1" as="geometry" />
        </mxCell>
        <mxCell id="WYj4CPsdhlNgNL-GPiIF-4" value="创作" style="rounded=0;whiteSpace=wrap;html=1;" vertex="1" parent="1">
          <mxGeometry x="301.65999999999997" y="170" width="80" height="40" as="geometry" />
        </mxCell>
        <mxCell id="WYj4CPsdhlNgNL-GPiIF-28" style="edgeStyle=orthogonalEdgeStyle;rounded=0;orthogonalLoop=1;jettySize=auto;html=1;exitX=0.5;exitY=1;exitDx=0;exitDy=0;exitPerimeter=0;entryX=0.5;entryY=0;entryDx=0;entryDy=0;" edge="1" parent="1" source="WYj4CPsdhlNgNL-GPiIF-7" target="WYj4CPsdhlNgNL-GPiIF-9">
          <mxGeometry relative="1" as="geometry" />
        </mxCell>
        <mxCell id="WYj4CPsdhlNgNL-GPiIF-7" value="上传" style="strokeWidth=1;html=1;shape=mxgraph.flowchart.decision;whiteSpace=wrap;" vertex="1" parent="1">
          <mxGeometry x="294.98" y="235" width="93.34" height="50" as="geometry" />
        </mxCell>
        <mxCell id="WYj4CPsdhlNgNL-GPiIF-37" style="edgeStyle=orthogonalEdgeStyle;rounded=0;orthogonalLoop=1;jettySize=auto;html=1;entryX=0.5;entryY=0;entryDx=0;entryDy=0;" edge="1" parent="1" source="WYj4CPsdhlNgNL-GPiIF-9" target="WYj4CPsdhlNgNL-GPiIF-35">
          <mxGeometry relative="1" as="geometry" />
        </mxCell>
        <mxCell id="WYj4CPsdhlNgNL-GPiIF-39" style="edgeStyle=orthogonalEdgeStyle;rounded=0;orthogonalLoop=1;jettySize=auto;html=1;" edge="1" parent="1" source="WYj4CPsdhlNgNL-GPiIF-9" target="WYj4CPsdhlNgNL-GPiIF-14">
          <mxGeometry relative="1" as="geometry" />
        </mxCell>
        <mxCell id="WYj4CPsdhlNgNL-GPiIF-40" style="edgeStyle=orthogonalEdgeStyle;rounded=0;orthogonalLoop=1;jettySize=auto;html=1;entryX=0.5;entryY=0;entryDx=0;entryDy=0;" edge="1" parent="1" source="WYj4CPsdhlNgNL-GPiIF-9" target="WYj4CPsdhlNgNL-GPiIF-33">
          <mxGeometry relative="1" as="geometry">
            <mxPoint x="450" y="380" as="targetPoint" />
          </mxGeometry>
        </mxCell>
        <mxCell id="WYj4CPsdhlNgNL-GPiIF-42" style="edgeStyle=orthogonalEdgeStyle;rounded=0;orthogonalLoop=1;jettySize=auto;html=1;entryX=0.5;entryY=0;entryDx=0;entryDy=0;" edge="1" parent="1" source="WYj4CPsdhlNgNL-GPiIF-9" target="WYj4CPsdhlNgNL-GPiIF-34">
          <mxGeometry relative="1" as="geometry" />
        </mxCell>
        <mxCell id="WYj4CPsdhlNgNL-GPiIF-9" value="填写视频信息" style="rounded=0;whiteSpace=wrap;html=1;" vertex="1" parent="1">
          <mxGeometry x="301.65" y="310" width="80" height="40" as="geometry" />
        </mxCell>
        <mxCell id="WYj4CPsdhlNgNL-GPiIF-47" style="edgeStyle=orthogonalEdgeStyle;rounded=0;orthogonalLoop=1;jettySize=auto;html=1;entryX=0.5;entryY=0;entryDx=0;entryDy=0;" edge="1" parent="1" source="WYj4CPsdhlNgNL-GPiIF-14" target="WYj4CPsdhlNgNL-GPiIF-16">
          <mxGeometry relative="1" as="geometry">
            <Array as="points">
              <mxPoint x="520" y="430" />
              <mxPoint x="347" y="430" />
            </Array>
          </mxGeometry>
        </mxCell>
        <mxCell id="WYj4CPsdhlNgNL-GPiIF-14" value="填写简介" style="rounded=0;whiteSpace=wrap;html=1;" vertex="1" parent="1">
          <mxGeometry x="480" y="370" width="80" height="40" as="geometry" />
        </mxCell>
        <mxCell id="WYj4CPsdhlNgNL-GPiIF-15" style="edgeStyle=orthogonalEdgeStyle;rounded=0;orthogonalLoop=1;jettySize=auto;html=1;entryX=0.5;entryY=0;entryDx=0;entryDy=0;entryPerimeter=0;" edge="1" parent="1" source="WYj4CPsdhlNgNL-GPiIF-16" target="WYj4CPsdhlNgNL-GPiIF-27">
          <mxGeometry relative="1" as="geometry" />
        </mxCell>
        <mxCell id="WYj4CPsdhlNgNL-GPiIF-16" value="同意制作条约" style="rounded=0;whiteSpace=wrap;html=1;" vertex="1" parent="1">
          <mxGeometry x="306.66999999999996" y="450" width="80" height="40" as="geometry" />
        </mxCell>
        <mxCell id="WYj4CPsdhlNgNL-GPiIF-49" style="edgeStyle=orthogonalEdgeStyle;rounded=0;orthogonalLoop=1;jettySize=auto;html=1;entryX=0.092;entryY=0.472;entryDx=0;entryDy=0;entryPerimeter=0;" edge="1" parent="1" source="WYj4CPsdhlNgNL-GPiIF-18" target="WYj4CPsdhlNgNL-GPiIF-7">
          <mxGeometry relative="1" as="geometry" />
        </mxCell>
        <mxCell id="WYj4CPsdhlNgNL-GPiIF-18" value="本地视频" style="rounded=0;whiteSpace=wrap;html=1;" vertex="1" parent="1">
          <mxGeometry x="186.65999999999997" y="240" width="80" height="40" as="geometry" />
        </mxCell>
        <mxCell id="WYj4CPsdhlNgNL-GPiIF-27" value="发布" style="strokeWidth=1;html=1;shape=mxgraph.flowchart.terminator;whiteSpace=wrap;" vertex="1" parent="1">
          <mxGeometry x="304.99" y="530" width="83.33" height="50" as="geometry" />
        </mxCell>
        <mxCell id="WYj4CPsdhlNgNL-GPiIF-50" style="edgeStyle=orthogonalEdgeStyle;rounded=0;orthogonalLoop=1;jettySize=auto;html=1;entryX=0.932;entryY=0.504;entryDx=0;entryDy=0;entryPerimeter=0;" edge="1" parent="1" source="WYj4CPsdhlNgNL-GPiIF-29" target="WYj4CPsdhlNgNL-GPiIF-7">
          <mxGeometry relative="1" as="geometry" />
        </mxCell>
        <mxCell id="WYj4CPsdhlNgNL-GPiIF-29" value="拍摄" style="rounded=0;whiteSpace=wrap;html=1;" vertex="1" parent="1">
          <mxGeometry x="410" y="240" width="80" height="40" as="geometry" />
        </mxCell>
        <mxCell id="WYj4CPsdhlNgNL-GPiIF-46" style="edgeStyle=orthogonalEdgeStyle;rounded=0;orthogonalLoop=1;jettySize=auto;html=1;entryX=0.5;entryY=0;entryDx=0;entryDy=0;" edge="1" parent="1" source="WYj4CPsdhlNgNL-GPiIF-33" target="WYj4CPsdhlNgNL-GPiIF-16">
          <mxGeometry relative="1" as="geometry" />
        </mxCell>
        <mxCell id="WYj4CPsdhlNgNL-GPiIF-33" value="先择类型" style="rounded=0;whiteSpace=wrap;html=1;" vertex="1" parent="1">
          <mxGeometry x="383.32" y="370" width="80" height="40" as="geometry" />
        </mxCell>
        <mxCell id="WYj4CPsdhlNgNL-GPiIF-48" style="edgeStyle=orthogonalEdgeStyle;rounded=0;orthogonalLoop=1;jettySize=auto;html=1;entryX=0.5;entryY=0;entryDx=0;entryDy=0;" edge="1" parent="1" source="WYj4CPsdhlNgNL-GPiIF-34" target="WYj4CPsdhlNgNL-GPiIF-16">
          <mxGeometry relative="1" as="geometry">
            <Array as="points">
              <mxPoint x="260" y="430" />
              <mxPoint x="347" y="430" />
            </Array>
          </mxGeometry>
        </mxCell>
        <mxCell id="WYj4CPsdhlNgNL-GPiIF-34" value="选择标签" style="rounded=0;whiteSpace=wrap;html=1;" vertex="1" parent="1">
          <mxGeometry x="219.99" y="370" width="80" height="40" as="geometry" />
        </mxCell>
        <mxCell id="WYj4CPsdhlNgNL-GPiIF-44" style="edgeStyle=orthogonalEdgeStyle;rounded=0;orthogonalLoop=1;jettySize=auto;html=1;entryX=0.5;entryY=0;entryDx=0;entryDy=0;" edge="1" parent="1" source="WYj4CPsdhlNgNL-GPiIF-35" target="WYj4CPsdhlNgNL-GPiIF-16">
          <mxGeometry relative="1" as="geometry">
            <mxPoint x="210" y="450" as="targetPoint" />
            <Array as="points">
              <mxPoint x="170" y="430" />
              <mxPoint x="347" y="430" />
            </Array>
          </mxGeometry>
        </mxCell>
        <mxCell id="WYj4CPsdhlNgNL-GPiIF-35" value="填写标题" style="rounded=0;whiteSpace=wrap;html=1;" vertex="1" parent="1">
          <mxGeometry x="130" y="370" width="80" height="40" as="geometry" />
        </mxCell>
      </root>
    </mxGraphModel>
  </diagram>
</mxfile>
